<svg width="74" height="12" fill="none" xmlns="http://www.w3.org/2000/svg"><path d="M6.589 0l1.48 4.146h4.787L8.983 6.708l1.479 4.146-3.873-2.562-3.873 2.562 1.48-4.146L.321 4.146H5.11L6.589 0zM21.794 0l1.48 4.146h4.787l-3.873 2.562 1.48 4.146-3.873-2.562-3.873 2.562L19.4 6.708l-3.873-2.562h4.787L21.795 0zM37 0l1.48 4.146h4.787l-3.873 2.562 1.479 4.146L37 8.292l-3.873 2.562 1.48-4.146-3.873-2.562h4.787L37 0zM52.206 0l1.479 4.146h4.787l-3.873 2.562 1.48 4.146-3.873-2.562-3.873 2.562 1.479-4.146-3.873-2.562h4.787L52.206 0zM67.411 0l1.48 4.146h4.786l-3.872 2.562 1.479 4.146-3.873-2.562-3.873 2.562 1.48-4.146-3.874-2.562h4.788L67.41 0z" fill="#F7C154"/></svg>